<?xml version="1.0" encoding="utf-8"?>
<!-- Generator: Adobe Illustrator 27.8.0, SVG Export Plug-In . SVG Version: 6.00 Build 0)  -->
<svg version="1.1" id="Capa_1" xmlns="http://www.w3.org/2000/svg" xmlns:xlink="http://www.w3.org/1999/xlink" x="0px" y="0px"
	 viewBox="0 0 283.46 283.46" style="enable-background:new 0 0 283.46 283.46;" xml:space="preserve" fill="#919191">
<g>
	<path class="st0" d="M0,214.26c1.07-3.6,1.82-7.34,3.28-10.78c5.05-11.95,14.2-19.22,26.65-22.45c5.35-1.39,10.73-2.63,16.12-3.85
		c1.49-0.34,2.01-0.94,2.13-2.55c0.25-3.46-0.64-5.77-3.66-8.08c-7.82-5.97-12.56-14.23-13.13-24.03
		c-0.59-10.09-0.9-20.37,0.32-30.36c1.76-14.4,10.52-24.26,24.21-28.88c13.71-4.63,26.17-1.51,36.9,8.24
		c0.54,0.49,1.06,1.02,1.59,1.53c0.06,0.06,0.16,0.08,0.31,0.16c9.57-24,26.81-37,53.09-34.24c20.54,2.16,33.73,14.74,40.88,34.31
		c0.68-0.61,1.32-1.18,1.96-1.76c11.58-10.4,24.85-13.27,39.21-7.33c14.36,5.94,21.84,17.35,22.55,32.89
		c0.33,7.18,0.2,14.39,0.03,21.58c-0.28,12.2-5.34,22.02-15.17,29.33c-1.56,1.16-2.82,6.67-1.73,8.24c0.35,0.5,1.22,0.73,1.9,0.9
		c5.19,1.28,10.41,2.43,15.57,3.78c16.73,4.37,26.77,15.03,30.01,32.06c0.08,0.44,0.3,0.86,0.46,1.29c0,14.39,0,28.79,0,43.18
		c-1.72,3.08-4.39,3.96-7.82,3.93c-12.98-0.13-25.96-0.05-38.95-0.05c-0.98,0-1.95,0-3.11,0c0,5.14-0.08,9.91,0.03,14.69
		c0.08,3.48-1.02,6.11-4.41,7.46c-21.96,0-43.92,0-65.88,0c-3.49-2.55-4.43-4.51-3.5-7.25c0.94-2.73,2.98-3.82,7.19-3.83
		c2.31,0,4.61,0,6.92,0c5.97,0,11.94,0,18.17,0c0-1.18,0-2.07,0-2.97c0-6.64-0.01-13.28,0.01-19.93c0.01-4.31,2.06-6.89,5.44-6.96
		c3.46-0.06,5.6,2.61,5.62,7.07c0.02,4.8,0,9.59,0,14.39c0,2.73,0,5.47,0,8.15c6.64,0,12.94,0,19.24,0c0-9.15,0.3-18.08-0.07-26.97
		c-0.5-11.87-5.74-21.68-14.95-29.08c-3.46-2.78-7.52-5.28-11.72-6.55c-10.28-3.09-20.8-5.38-31.29-8.01
		c-0.59,1.25-1.03,2.15-1.43,3.06c-5.23,11.89-10.46,23.77-15.66,35.67c-1.07,2.45-2.57,4.33-5.45,4.39
		c-3.01,0.06-4.6-1.82-5.72-4.39c-4.97-11.4-9.99-22.77-14.99-34.15c-0.66-1.49-1.34-2.97-2.06-4.56
		c-9.27,2.23-18.33,4.3-27.32,6.61c-18.65,4.77-30.74,20.35-30.85,39.59c-0.04,7.38-0.01,14.76,0,22.14c0,0.79,0.1,1.58,0.16,2.36
		c6.48,0,12.72,0,19.23,0c0-1.12,0-2.11,0-3.09c0-6.83-0.05-13.65,0.02-20.48c0.04-3.64,2.3-6.08,5.42-6.15
		c3.23-0.07,5.56,2.44,5.61,6.22c0.07,4.7,0.02,9.41,0.02,14.11c0,3.1,0,6.21,0,9.52c1.33,0,2.32,0,3.32,0
		c6.92,0,13.84-0.07,20.76,0.03c4.53,0.06,7.4,3.85,5.61,7.55c-0.69,1.43-2.42,2.35-3.68,3.5c-21.22,0-42.45,0-63.67,0
		c-3.1-1.72-4.08-4.38-3.93-7.83c0.19-4.67,0.05-9.36,0.05-14.31c-1.25,0-2.24,0-3.23,0c-12.92,0-25.83-0.08-38.75,0.05
		c-3.44,0.03-6.12-0.83-7.84-3.93C0,243.05,0,228.65,0,214.26z M104.6,122.99c0,6.38-0.56,12.41,0.11,18.31
		c1.88,16.71,16.66,30.67,33.23,31.98c18.36,1.45,34.73-9.45,39.81-26.34c2.51-8.33,1.37-16.84,1.56-25.28
		c0.01-0.65-0.88-1.53-1.57-1.95c-6.24-3.74-12.55-7.37-18.79-11.12c-1.32-0.79-2.2-0.75-3.36,0.32
		c-10.77,9.9-23.56,14.4-38.12,14.1C113.15,122.91,108.83,122.99,104.6,122.99z M179.15,107.5c1.31-12.24-6.98-26.51-19.18-33.35
		c-13-7.29-29.37-6.07-41.29,3.35c-11.06,8.73-15.34,20.4-14.43,34.41c4.35,0,8.4-0.11,12.45,0.02
		c13.79,0.45,25.42-4.14,34.73-14.47c2.63-2.92,4.93-3.15,8.39-1.16c5.66,3.27,11.28,6.62,16.92,9.92
		C177.48,106.67,178.28,107.05,179.15,107.5z M272.25,250.13c0-11.39,0.44-22.55-0.13-33.66c-0.54-10.73-6.27-18.82-16.19-22.84
		c-7.01-2.84-14.63-4.14-22.13-6.17c-3.63,8.66-7.05,16.99-10.63,25.25c-0.81,1.87-0.52,3.15,0.65,4.73
		c4.08,5.45,6.95,11.53,8.23,18.22c0.91,4.75,1.34,9.59,1.99,14.4c5.29,0,10.67,0,16.2,0c0-2.95,0-5.71,0-8.46
		c0-5.26-0.09-10.51,0.05-15.77c0.09-3.45,2.45-5.64,5.6-5.59c3.01,0.05,5.16,2.21,5.4,5.53c0.09,1.28,0.03,2.58,0.03,3.87
		c0,6.79,0,13.59,0,20.5C265.09,250.13,268.55,250.13,272.25,250.13z M33.22,250.07c5.65,0,11.03,0,16.41,0
		c0.08-0.43,0.17-0.69,0.17-0.95c-0.18-12.1,3.19-23.05,10.38-32.84c0.53-0.72,0.45-2.27,0.08-3.21c-2.27-5.73-4.7-11.4-7.08-17.08
		c-1.16-2.77-2.33-5.54-3.5-8.32c-5.93,1.42-11.61,2.62-17.2,4.13c-13.56,3.65-21.35,13.88-21.4,27.92
		c-0.03,9.31-0.01,18.62,0,27.93c0,0.8,0.09,1.6,0.13,2.41c3.72,0,7.25,0,10.93,0c0-5.62,0-11.05,0-16.47
		c0-2.67-0.11-5.35,0.06-8.02c0.21-3.28,2.52-5.37,5.56-5.33c2.91,0.04,5.07,2.1,5.4,5.23c0.11,1.1,0.05,2.21,0.05,3.32
		C33.22,235.84,33.22,242.92,33.22,250.07z M190.89,122.79c0,6.67-0.54,13.07,0.13,19.34c1,9.49,6.61,16.16,15.29,19.76
		c8.81,3.65,17.39,2.48,25.06-3.34c9.19-6.98,10.83-16.76,9.86-27.46c-8.63-0.33-17.2-0.33-25.71-1.06
		C206.87,129.27,198.67,126.46,190.89,122.79z M42.2,130.65c-0.39,7.63-0.41,14.71,3.69,21.03c5.54,8.54,13.47,12.85,23.6,12
		c10.7-0.9,18.15-6.7,21.91-16.82c2.87-7.74,1.16-15.83,1.71-24.47C76.81,130.94,59.7,131.27,42.2,130.65z M241.21,119.51
		c1.14-12.87-8.57-24.9-21.44-26.79c-12.75-1.87-25.53,6.34-27.94,17.92C207.06,120.09,223.95,120.29,241.21,119.51z M91.71,110.58
		C88.31,97.99,75.22,90.2,62.2,92.96c-12.26,2.6-21.5,14.91-19.85,26.55C59.48,120.29,76.44,120.12,91.71,110.58z M127.92,182.52
		c-0.03,6.25-0.43,11.88,2.44,17.4c3.64,7.01,6.48,14.43,9.66,21.67c0.46,1.05,0.94,2.1,1.62,3.61c0.68-1.35,1.15-2.21,1.54-3.09
		c3.44-7.83,6.58-15.82,10.41-23.46c2.62-5.24,1.68-10.49,1.96-16.11C146.21,185.1,137.2,185.05,127.92,182.52z M86.93,176.48
		c9.94,3.06,20.39,3.84,29.56,9.1c0.92-4.87,0.87-9.03-4.31-11.22c-0.89-0.38-1.67-1.17-2.33-1.92c-3.99-4.53-7.92-9.1-11.58-13.31
		c-3.23,2.97-6.87,6.28-10.45,9.66c-0.47,0.44-0.81,1.21-0.85,1.86C86.86,172.58,86.93,174.51,86.93,176.48z M196.53,176.47
		c0-1.65,0.08-3.21-0.03-4.77c-0.07-0.95-0.12-2.19-0.71-2.75c-3.58-3.46-7.32-6.77-10.85-10c-2.3,3.07-4.54,6.72-7.44,9.75
		c-2.96,3.1-6.58,5.58-9.88,8.37c-0.44,0.37-0.92,0.99-0.95,1.52c-0.1,2.25-0.04,4.5-0.04,7.24
		C176.15,180.27,186.64,179.57,196.53,176.47z M59.3,174.58c-0.16,3.4-0.41,6.94,1.26,10.48c2.44,5.17,4.49,10.52,6.7,15.8
		c0.25,0,0.5,0,0.76-0.01c2.41-8.91,9.27-16.47,7.75-26.27C70.19,174.58,64.82,174.58,59.3,174.58z M215.59,200.8
		c0.28,0.01,0.56,0.02,0.83,0.03c2.34-8.91,9.23-16.46,7.76-26.25c-5.65,0-11.01,0-16.33,0c0,2.44-0.69,5.31,0.13,7.67
		C210.18,188.55,213.01,194.63,215.59,200.8z M198.06,187.6c-7.07,1.74-13.83,3.4-20.58,5.07c0.01,0.18,0.01,0.36,0.02,0.54
		c8.52,2.23,17.03,4.46,25.71,6.74C201.52,195.91,199.84,191.88,198.06,187.6z M80.24,199.89c8.75-2.29,17.2-4.51,25.65-6.72
		c0-0.18-0.01-0.36-0.01-0.55c-6.83-1.66-13.66-3.33-20.53-5C83.56,191.92,81.91,195.89,80.24,199.89z"/>
	<path class="st0" d="M140.07,283.46c-1.25-1.38-2.96-2.56-3.66-4.18c-1.09-2.54,0.63-5.42,3.26-6.44c2.5-0.97,5.31,0.06,6.65,2.42
		c1.38,2.45,0.72,5.43-1.6,7.08c-0.59,0.42-1.25,0.75-1.88,1.11C141.92,283.46,140.99,283.46,140.07,283.46z"/>
	<path class="st0" d="M142.84,0c3.39,1.75,4.72,3.68,4.31,6.25c-0.4,2.53-2.5,4.52-5.01,4.75c-2.33,0.21-4.69-1.36-5.53-3.69
		c-0.84-2.33-0.03-4.81,2.1-6.26c0.6-0.41,1.27-0.71,1.91-1.06C141.36,0,142.1,0,142.84,0z"/>
	<path class="st0" d="M147.26,34.09c0,2.3,0.1,4.6-0.02,6.89c-0.18,3.45-2.42,5.65-5.55,5.62c-3.11-0.02-5.36-2.25-5.45-5.72
		c-0.12-4.69-0.12-9.38,0.01-14.06c0.09-3.36,2.55-5.74,5.54-5.7c2.99,0.03,5.31,2.42,5.46,5.8
		C147.34,29.31,147.26,31.7,147.26,34.09z"/>
	<path class="st0" d="M158.69,26.55c0.95-1.87,1.36-3.35,2.29-4.37c2.6-2.85,5.33-5.6,8.18-8.22c2.59-2.38,5.74-2.27,7.91-0.03
		c2.15,2.21,2.12,5.36-0.29,7.91c-2.65,2.81-5.41,5.52-8.23,8.17c-1.75,1.65-4.03,2.3-6.07,0.9
		C160.97,29.88,159.98,28.09,158.69,26.55z"/>
	<path class="st0" d="M110.02,11.92c1.87,1.05,3.38,1.59,4.48,2.58c2.6,2.35,5.06,4.85,7.46,7.4c2.53,2.69,2.58,5.88,0.28,8.13
		c-2.19,2.14-5.39,2.14-7.93-0.24c-2.76-2.58-5.41-5.28-7.98-8.04c-1.64-1.77-2.18-4.11-0.81-6.1
		C106.55,14.14,108.4,13.21,110.02,11.92z"/>
	<path class="st0" d="M245.94,22.85c-0.02,0.25,0.01,1.18-0.17,2.08c-0.47,2.43-2.02,3.9-4.41,4.33c-2.42,0.43-4.34-0.53-5.61-2.62
		c-1.41-2.32-1.21-7.74,0.36-9.77c1.5-1.95,3.49-2.58,5.86-1.94C244.8,15.67,245.96,17.82,245.94,22.85z"/>
	<path class="st0" d="M245.94,48.81c0.01,5.38-2.64,8.19-6.79,7.19c-2.99-0.72-4.32-2.99-4.29-7.35c0.03-4.03,1.52-6.39,4.42-7.02
		C243.25,40.78,245.94,43.67,245.94,48.81z"/>
	<path class="st0" d="M29.41,29.9c4.84,0.01,7.42,2.15,7.18,5.94c-0.23,3.61-2.89,5.26-8.27,5.13c-3.9-0.09-6.29-2.12-6.37-5.39
		C21.85,31.86,24.45,29.88,29.41,29.9z"/>
	<path class="st0" d="M55.77,41.03c-0.76-0.08-1.79-0.09-2.76-0.32c-2.57-0.62-4.4-2.91-4.24-5.39c0.18-2.65,1.55-4.6,4.21-5.11
		c1.86-0.35,3.85-0.37,5.74-0.15c2.88,0.34,4.88,2.81,4.81,5.49c-0.07,2.62-2.01,4.8-4.77,5.28C57.87,40.99,56.94,40.96,55.77,41.03
		z"/>
	<path class="st0" d="M226.91,40.97c-4.63-0.01-7.11-1.86-7.2-5.38c-0.09-3.67,2.43-5.68,7.15-5.7c4.99-0.01,7.54,1.91,7.47,5.65
		C234.26,39.15,231.76,40.98,226.91,40.97z"/>
	<path class="st0" d="M253.89,40.97c-5.44,0-8.37-2.96-7.07-7.14c0.93-2.99,3.2-4.08,8.16-3.93c3.38,0.11,5.51,1.65,6.14,4.44
		C262.01,38.25,259.04,40.97,253.89,40.97z"/>
	<path class="st0" d="M48.25,22.02c-0.05,0.92-0.02,1.85-0.17,2.75c-0.45,2.61-2.56,4.46-5.12,4.58c-2.56,0.12-4.92-1.48-5.43-4.11
		c-0.36-1.86-0.44-3.85-0.21-5.73c0.37-3.07,2.87-5.04,5.68-4.87c2.88,0.18,4.94,2.33,5.18,5.45c0.05,0.64,0.01,1.29,0.01,1.93
		C48.2,22.02,48.23,22.02,48.25,22.02z"/>
	<path class="st0" d="M48.21,48.21c-0.01,6.05-2.86,8.88-6.99,7.76c-2.95-0.8-4.17-3.14-4.08-7.79c0.07-3.62,1.57-5.88,4.34-6.53
		c3-0.7,5.99,1.22,6.58,4.33C48.24,46.96,48.19,47.99,48.21,48.21z"/>
	<path class="st0" d="M141.49,160.57c-3.81-0.13-7.21-1.37-10.06-3.95c-2.46-2.22-2.87-5.25-1.08-7.65
		c1.83-2.46,4.85-3.05,7.58-1.07c2.54,1.84,4.7,1.92,7.27,0.05c2.74-2,5.76-1.46,7.59,0.95c1.84,2.42,1.5,5.47-0.95,7.67
		C148.9,159.2,145.44,160.52,141.49,160.57z"/>
	<path class="st0" d="M160.08,139c-2.99-0.06-5.43-2.58-5.35-5.55c0.07-2.93,2.68-5.46,5.57-5.4c2.92,0.07,5.38,2.65,5.33,5.61
		C165.57,136.66,163.08,139.06,160.08,139z"/>
	<path class="st0" d="M128.58,133.44c0.07,3.03-2.29,5.5-5.3,5.57c-3.01,0.06-5.5-2.33-5.55-5.33c-0.05-2.97,2.36-5.52,5.31-5.61
		C125.95,127.99,128.51,130.48,128.58,133.44z"/>
</g>
</svg>
