<?xml version="1.0" encoding="utf-8"?>
<!-- Generator: Adobe Illustrator 27.8.0, SVG Export Plug-In . SVG Version: 6.00 Build 0)  -->
<svg version="1.1" id="Capa_1" xmlns="http://www.w3.org/2000/svg" xmlns:xlink="http://www.w3.org/1999/xlink" x="0px" y="0px"
	 viewBox="0 0 283.46 283.46" style="enable-background:new 0 0 283.46 283.46;" xml:space="preserve" fill="#919191">
<g>
	<path class="st0" d="M147.85,234.14c6.08,7.45,12.22,14.78,18.12,22.29c2.32,2.96,4.16,6.3,6.14,9.52c1.84,3,1.76,4.59-0.12,5.74
		c-1.86,1.14-3.46,0.36-5.09-2.61c-5.42-9.84-12.17-18.66-20.11-26.6c-9.65-9.64-10.01-9.93-23.55-9.95
		c-7.36-0.01-14.73,0.35-22.09,0.58c-0.79,0.02-1.58,0.22-2.87,0.4c1.01,0.78,1.61,1.28,2.25,1.72
		c12.52,8.53,22.58,19.43,30.82,32.1c1.19,1.82,1.07,3.26-0.73,4.48c-1.92,1.3-3.26,0.47-4.36-1.23
		c-6.98-10.79-15.46-20.2-25.77-27.88c-3.47-2.58-7.14-4.89-10.77-7.25c-0.63-0.41-1.56-0.7-2.28-0.59
		c-13.89,2.11-27.36,5.68-40.08,11.8c-0.24,0.12-0.44,0.33-0.17,0.12c6.31,3.7,12.99,7.2,19.2,11.41c4.08,2.76,7.55,6.45,11.13,9.89
		c1.99,1.91,2.15,4.4,0.74,5.61c-1.56,1.35-3.53,0.94-5.49-1.27c-8.66-9.74-19.19-16.55-31.66-20.36c-1.85-0.57-3.39-0.52-5.17,0.53
		c-8.63,5.09-16.43,11.21-23.48,18.3c-0.65,0.65-1.27,1.34-1.95,1.96c-1.52,1.39-3.18,1.6-4.65,0.09c-1.46-1.5-1.15-3.09,0.14-4.69
		c7.42-9.16,16.57-16.19,26.82-21.87c11.24-6.22,23.02-11.12,35.37-14.64c0.78-0.22,1.55-0.49,3.35-1.06
		c-1.49-1.2-2.56-1.98-3.54-2.86c-15.89-14.22-34.42-22.03-55.75-23.06c-0.37-0.02-0.74-0.01-1.1-0.04
		c-2.43-0.22-3.77-1.57-3.55-3.65c0.24-2.29,1.87-2.88,3.78-2.64c6.92,0.87,13.98,1.26,20.72,2.91
		c17.33,4.23,32.06,13.22,44.34,26.16c1.26,1.33,2.31,1.44,4.03,1.21c11.12-1.44,22.27-2.69,33.4-3.99
		c0.71-0.08,1.42-0.09,2.47-0.14c-0.52-1.02-0.87-1.84-1.32-2.6c-18.23-30.78-45.14-48.67-80.42-53.66
		c-7.42-1.05-15.05-0.64-22.58-0.81c-2.09-0.05-3.98-0.19-4.39-2.7c-0.33-2.08,1.16-3.47,3.85-3.62
		c41.74-2.23,87.07,16.01,110.2,60.7c1.08,2.08,2.23,2.84,4.58,2.92c6.44,0.23,12.86,0.83,19.29,1.27c0.62,0.04,1.24,0.01,2.08,0.01
		c-3-10.16-6.99-19.73-12.06-28.85c-11.46-20.61-26.66-37.56-47.94-48.34c-26.59-13.46-52.8-12.43-78.46,2.7
		c-1.78,1.05-3.61,1.55-4.87-0.37c-1.34-2.04-0.23-3.65,1.7-4.76c2.31-1.32,4.63-2.65,6.94-3.97c-5.81-9.19-5.33-13.94,1.95-17.67
		c-0.36-6.86,1.41-12.84,8-16.23c4.78-2.46,8.9-0.7,12.39,2.8c9.48-5.71,15.12-4.85,20.19,3.03c4.82-1.07,8.36,0.72,10.73,5.06
		c0.27,0.48,0.87,0.9,1.41,1.1c6.27,2.24,8.05,7.71,4.32,13.42c-0.25,0.38-0.51,0.75-0.99,1.46c10.89,2.71,21.04,6.73,30.03,14.03
		c0-1.88,0-3.29,0-4.24c-3.55-2-7.13-3.55-10.17-5.82c-5.44-4.06-7.27-9.68-5.06-16.19c1.18-3.47,2.82-6.8,4.51-10.06
		c2.51-4.82,5.24-9.52,7.88-14.27c0.13-0.24,0.26-0.49,0.41-0.72c1.91-3.01,3.88-6.07,8.06-5.75c4.21,0.32,5.16,3.93,6.54,7.02
		c2.7,6.05,5.52,12.06,8.01,18.19c1.13,2.78,1.8,5.81,2.29,8.79c1.03,6.28-1.24,11.33-6.66,14.62c-2.71,1.64-5.79,2.66-9,4.1
		c0,2.18-0.07,4.75,0.05,7.32c0.03,0.6,0.6,1.3,1.11,1.73c5.28,4.44,10.61,8.84,16.11,13.41c0.39-0.33,1.03-0.82,1.62-1.37
		c15.61-14.43,32.86-26.41,52.24-35.22c1.54-0.7,2.27-1.51,2.17-3.29c-0.16-2.75-0.04-5.51-0.04-8.39
		c-1.61-0.35-3.04-0.61-4.44-0.97c-12.79-3.23-18.31-12.68-14.97-25.9c0.83-3.29,1.91-6.58,3.4-9.62
		c3.98-8.1,8.18-16.09,12.45-24.04c1.03-1.91,2.45-3.72,4.04-5.2c3.3-3.09,6.95-2.72,9.83,0.75c0.7,0.85,1.41,1.75,1.84,2.75
		c4.45,10.21,9.15,20.33,13.1,30.73c1.59,4.18,1.85,8.99,2.03,13.55c0.2,4.9-2.03,9.21-6.29,11.62c-4.02,2.28-8.57,3.59-12.83,5.47
		c-0.78,0.34-1.72,1.26-1.82,2c-0.25,1.99-0.09,4.03-0.09,6.4c4.45-1.64,8.59-3.32,12.83-4.69c4.19-1.35,8.49-2.38,12.92-3.61
		c-0.28-0.59-0.6-1.3-0.94-2c-3.27-6.81,0.62-13.53,8.14-14.26c1.05-0.1,2.35-0.85,2.96-1.71c4.46-6.22,12.24-7.34,18.07-2.34
		c1.09,0.94,1.82,0.97,3.1,0.45c6.13-2.47,12.15,0.24,14.78,6.32c0.38,0.88,1.42,1.82,2.33,2.06c4.43,1.17,7.01,5.79,5.32,10.16
		c-0.61,1.57-1.83,2.91-2.43,4.49c-0.6,1.57-0.76,3.3-1.19,5.29c4.91,3.62,9.45,8.15,12.75,13.8c0.56,0.95,1.1,1.92,1.59,2.91
		c0.93,1.87,0.97,3.77-1.05,4.79c-2.14,1.08-3.62-0.12-4.65-2.1c-5.86-11.25-15.43-17.81-27.27-21.37
		c-11.65-3.5-23.34-2.48-34.94,0.29c-22.01,5.26-41.57,15.74-59.79,28.87c-7.37,5.31-14.27,11.28-21.34,16.92
		c4.61,6.22,8.81,11.89,13.12,17.71c0.57-0.54,1.17-1.07,1.72-1.64c24.52-25.19,54.34-36.88,89.37-34.89
		c14.49,0.83,28.28,4.73,41.2,11.41c1.17,0.6,2.14,2.15,2.53,3.46c0.18,0.62-1.11,2.16-2.01,2.46c-0.95,0.32-2.34-0.12-3.35-0.62
		c-9.83-4.8-20.08-8.25-30.93-9.76c-30.75-4.28-58.22,3.44-82.35,22.92c-4.64,3.74-8.78,8.1-13.1,12.12
		c2.47,5.07,4.84,9.93,7.32,15.01c0.66-0.42,1.33-0.82,1.98-1.27c38.29-26.22,77.99-28.51,119.06-6.98
		c1.01,0.53,2.29,1.38,2.52,2.31c0.26,1.02-0.21,2.83-0.99,3.34c-0.9,0.59-2.65,0.54-3.73,0.07c-5.3-2.33-10.32-5.38-15.76-7.28
		c-35.2-12.28-68.08-7.63-98.49,14.12c-1.86,1.33-2.25,2.58-1.36,4.6c0.81,1.84,1.36,3.8,2.06,5.79c3.8-1.35,7.44-2.89,11.23-3.92
		c3.53-0.96,7.2-1.52,10.84-2.01c2.55-0.35,4.33-0.98,5.12-3.91c1.24-4.61,4.35-7.67,9.26-8.35c4.96-0.69,8.78,1.34,11.64,5.35
		c0.32,0.44,0.6,0.92,0.98,1.49c1.49-0.42,2.94-0.98,4.45-1.23c4.37-0.72,7.92,0.65,10.67,4.26c0.68,0.89,1.96,1.59,3.09,1.83
		c19.41,4.11,36.85,12.06,51.13,26.18c0.85,0.84,1.67,2.08,1.81,3.21c0.29,2.45-2.37,4.03-4.54,2.81c-0.95-0.53-1.74-1.35-2.57-2.07
		c-11.79-10.3-25.36-17.25-40.28-21.7c-0.25-0.08-0.54-0.04-1.11-0.08c1.21,3.14,1.78,6.21-0.13,9.18
		c-0.16,0.25-0.13,0.76,0.01,1.03c2.23,4.18,0.68,7.84-1.44,11.08c4.83,3.17,9.76,6.01,14.23,9.44c3.94,3.02,7.34,6.7,8.9,11.69
		c0.52,1.65,0.71,3.1-0.9,4.17c-1.72,1.14-3.08,0.33-4.41-0.88c-11.98-10.96-25.74-18.98-40.82-24.85
		c-0.74-0.29-1.49-0.53-1.49-0.52c4.04,7.1,8.37,14.57,12.51,22.14c0.56,1.03,0.65,2.83,0.13,3.83c-1.3,2.48-4.17,1.81-5.73-1.02
		c-3.06-5.56-5.63-11.53-9.48-16.48c-11.87-15.28-8.14-12.56-24.61-16.18c-8.43-1.85-17.05-2.88-25.59-4.25
		C149.33,234.12,148.41,234.16,147.85,234.14z M185.38,55.31c-1.3,1.75-2.42,2.97-3.2,4.38c-2.48,4.41-5.02,8.8-7.19,13.37
		c-2.79,5.89-5.76,11.78-7.72,17.96c-3.15,9.91,0.77,16.65,10.54,19.54c1.54,0.45,3.01,1.1,4.47-0.6c0.46-0.54,2.16-0.04,3.29,0.06
		c0.93,0.08,1.93,0.54,2.77,0.33c2.04-0.51,4.06-1.17,5.98-2.02c4.78-2.13,7.49-5.84,6.83-11.14c-0.56-4.43-1.34-8.97-2.93-13.11
		c-3.39-8.83-7.36-17.45-11.12-26.14C186.77,57.19,186.21,56.56,185.38,55.31z M184.23,222.71c-2.36,1.6-1.97,3.65-0.7,5.69
		c0.92,1.48,2.43,2.69,2.99,4.26c0.54,1.52,1.39,1.85,2.69,2.23c7.95,2.29,15.89,4.63,23.8,7.03c2.63,0.8,5.17,1.91,7.79,2.77
		c1.67,0.55,3.81-1.03,4.5-3.13c0.65-1.97-0.4-2.42-2.07-2.99c-0.99-0.34-2.3-1.99-2.17-2.84c0.18-1.14,1.58-2.13,2.52-3.11
		c0.74-0.77,1.59-1.43,2.39-2.15c-0.87-0.95-1.59-2.39-2.66-2.73c-1.15-0.37-2.7,0.09-3.96,0.52c-1.71,0.58-3.28,0.91-4.38-0.88
		c-1.05-1.71-0.44-3.08,1-4.35c2.18-1.92,1.64-4.32-1.14-5.17c-2.55-0.78-4.68,0.28-6.64,1.81c-3.75,2.93-5.7,2.23-6.46-2.34
		c-0.55-3.33-4.01-6.19-6.78-5.6c-3.06,0.65-5.44,4.65-4.49,7.8c0.55,1.82,1.42,3.63-0.65,4.93c-2.11,1.33-3.62,0.01-4.98-1.51
		C184.74,222.82,184.52,222.81,184.23,222.71z M16.24,131.78c-1.57,1.72-1.08,3.51,0.25,4.61c1.8,1.5,2.44,5.03,6.09,3.73
		c12.31-4.38,25-5.87,38.01-4.93c2.05,0.15,6.3-2,7.07-3.86c0.34-0.83,0.07-1.91,0.08-2.87c-0.72,0.09-1.49,0.06-2.17,0.29
		c-2.45,0.81-4.14-0.6-4.49-3.25c-0.19-1.44-1.23-2.78-1.88-4.16c-1.33,0.74-2.87,1.25-3.95,2.27c-1.27,1.19-2.66,2.24-4.04,1.09
		c-0.96-0.8-1.65-2.62-1.51-3.88c0.24-2.06,0.58-4.24-1.4-5.13c-1.63-0.74-4.26-1.12-5.59-0.29c-2.19,1.38-3.86,3.74-5.43,5.92
		c-1.14,1.59-2.24,2.85-4.24,2.01c-1.75-0.73-2.11-2.17-1.81-4.11c0.17-1.13-0.35-2.82-1.18-3.52c-0.86-0.72-2.61-1-3.72-0.66
		c-2.8,0.84-4.54,3.22-4.69,5.94c-0.16,3.02,0.53,6.11,1.06,9.14c0.36,2.04,0.65,4.11-1.59,4.98c-2.17,0.84-3.65-0.39-4.27-2.61
		C16.77,132.27,16.51,132.1,16.24,131.78z M105.79,96.31c-1.04,1.51-1.74,2.36-2.26,3.31c-3.26,5.98-6.54,11.96-9.68,18.01
		c-1.01,1.95-1.73,4.07-2.38,6.17c-0.83,2.67-0.16,5.09,1.65,7.21c4.17,4.88,9.88,6.25,15.49,4.65c9.16-2.61,10.18-7.18,7.81-13.79
		C113.38,113.41,109.54,105.23,105.79,96.31z M255.72,121.5c-2.4-3.51-1.86-4.9,2.57-6.15c0.43-0.12,1.07-0.26,1.2-0.56
		c0.28-0.67,0.29-1.45,0.41-2.18c-0.6,0.14-1.41,0.09-1.76,0.46c-1.21,1.3-2.46,1.93-4.13,0.93c-1.73-1.03-1.97-2.53-1.32-4.3
		c0.97-2.65,0.07-4.73-2.14-6.23c-1.9-1.3-4.51-0.71-6.47,1.26c-2.37,2.39-4.16,2.15-5.78-0.87c-1.28-2.38-3.05-4.03-5.88-3.74
		c-2.97,0.3-4.37,2.46-5.16,5.08c-0.94,3.11-1.85,3.39-5.04,2.44c-1.29-0.39-3.12-0.13-4.27,0.55c-0.76,0.45-1.32,2.45-0.95,3.3
		c0.64,1.47,1.86,3.17,3.25,3.71c1.85,0.72,4.09,0.37,6.16,0.57c5.12,0.48,10.31,0.63,15.34,1.61
		C246.55,118.31,251.19,120.12,255.72,121.5z M162.44,228.17c0.07,0.26,0.15,0.52,0.22,0.78c5.08,1,10.15,2.01,15.1,2.98
		c-0.66-2.61-1.28-5.04-2-7.9C171.37,225.4,166.91,226.78,162.44,228.17z"/>
	<path class="st0" d="M85.33,56.66C68.65,56.73,56.9,39.9,63.74,25.21C67.98,16.1,74.58,9.33,85.49,8.84
		c10.43-0.47,19.57,5.65,22.77,15.03c3.75,10.96,0.55,21.47-8.51,27.98C95.4,55,90.46,56.64,85.33,56.66z M103.43,31.88
		c0.04-9.42-6.95-16.45-16.36-16.46c-9.95-0.01-17.43,7.61-17.51,17.83c-0.06,8.33,7.74,15.93,16.29,15.89
		C95.56,49.11,103.39,41.42,103.43,31.88z"/>
	<path class="st0" d="M221.8,40.94c3-2.28,5.53-4.48,8.34-6.21c1.85-1.14,4.01-1,5.15,1.37c0.9,1.86-0.1,3.36-2.81,4.43
		c-2.76,1.09-4.15,3.06-4.48,6.06c-0.13,1.18-0.89,2.84-1.81,3.24c-0.96,0.41-2.57-0.22-3.71-0.77c-3.12-1.51-6.09-3.33-9.22-4.81
		c-2.09-0.99-3.31-2.7-2.55-4.51c0.85-2.01,2.51-2.3,4.37-1.57C217.55,39.13,219.99,40.19,221.8,40.94z"/>
	<path class="st0" d="M59.76,74.85c2.78-1.81,4.81-3.47,7.12-4.53c1.77-0.81,3.59,0.03,4.12,2.07c0.48,1.85-0.5,3.33-2.35,3.77
		c-1.91,0.45-2.37,1.58-2.54,3.35c-0.34,3.4-2.39,4.48-5.36,2.94c-2.45-1.26-4.84-2.64-7.25-3.97c-1.86-1.02-2.39-2.56-1.38-4.4
		c0.98-1.78,2.54-1.94,4.26-1.03C57.75,73.77,59.12,74.5,59.76,74.85z"/>
</g>
</svg>
