<?xml version="1.0" encoding="utf-8"?>
<!-- Generator: Adobe Illustrator 27.8.0, SVG Export Plug-In . SVG Version: 6.00 Build 0)  -->
<svg version="1.1" id="Capa_1" xmlns="http://www.w3.org/2000/svg" xmlns:xlink="http://www.w3.org/1999/xlink" x="0px" y="0px"
	 viewBox="0 0 283.46 283.46" style="enable-background:new 0 0 283.46 283.46;" xml:space="preserve" fill="#919191">
<g>
	<path class="st0" d="M0,151.69c1.73-4.72,4.47-8.45,9.71-9.59c1.16-0.25,2.37-0.36,3.55-0.36c15.1-0.02,30.2,0.01,45.3-0.04
		c3.6-0.01,6.62,1.11,9.24,3.61c0.69,0.66,1.92,1.03,2.91,1.04c35.17,0.11,70.34,0.17,105.52,0.21c11.88,0.01,23.76-0.01,35.63-0.16
		c1.28-0.02,2.56-0.96,3.83-1.48c2.58-1.06,5.13-3,7.73-3.04c15.74-0.29,31.49-0.2,47.23-0.12c6.87,0.04,12.28,5.45,12.3,12.36
		c0.08,23.24,0.08,46.49,0,69.73c-0.02,6.9-5.23,12.2-12.34,12.34c-11.23,0.21-22.47,0.1-33.7,0.04c-3.26-0.02-6.07-1.26-8.38-3.65
		c-0.52-0.53-1.36-1.06-2.05-1.07c-7.82-0.07-15.64-0.05-23.64-0.05c-0.76,6.26-3.89,10.74-9.68,13.32
		c1.12,4.41,1.01,8.68-1.56,12.33c-1.54,2.19-3.9,3.79-5.84,5.71c-0.51,0.5-1.21,1.17-1.2,1.76c0.09,11.82-1.8,14.69-12.67,18.89
		c-1.29,0-2.58,0-3.87,0c-6.24-2.74-12.47-5.47-18.97-8.33c-2.21,4.52-6.18,6.92-10.88,8.33c-1.84,0-3.68,0-5.53,0
		c-4.51-1.6-8.38-4.04-10.6-8.43c-8.67,2.74-15.02-0.07-19.56-7.25c-9.07,2.23-13.86,0.41-19.4-7.29c-0.23,0.03-0.5,0.02-0.75,0.09
		c-6.32,1.89-11.93,0.71-16.34-4.29c-4.34-4.92-4.67-10.6-2.33-16.57c1.03-2.64,1.99-5.3,3.11-8.28c-3.73,0-7.03-0.05-10.32,0.04
		c-0.63,0.02-1.4,0.44-1.84,0.91c-2.72,2.91-6.12,3.87-9.98,3.86c-9.49-0.05-18.98-0.27-28.45,0.06
		c-7.79,0.27-13.42-2.28-16.17-9.91C0,201.52,0,176.6,0,151.69z M152.75,266.06c4.78,2.34,9.38,4.64,14.02,6.86
		c3.43,1.63,6.63,0.72,8.08-2.19c1.52-3.05,0.28-6.24-3.18-7.98c-3.12-1.57-6.29-3.04-9.44-4.57c-3.41-1.66-4.59-4.06-3.37-6.77
		c1.19-2.64,3.98-3.33,7.29-1.78c3.25,1.53,6.46,3.13,9.72,4.62c3.52,1.61,6.77,0.57,8.16-2.53c1.35-3,0.09-6-3.3-7.69
		c-3.46-1.72-6.97-3.33-10.44-5.04c-3.2-1.58-4.29-4.02-3.05-6.67c1.24-2.63,3.89-3.34,7.09-1.84c3.41,1.6,6.79,3.29,10.21,4.88
		c3.6,1.66,6.84,0.74,8.26-2.27c1.45-3.06,0.17-6.18-3.33-7.93c-3.13-1.56-6.3-3.02-9.44-4.55c-3.39-1.66-4.56-4.11-3.27-6.78
		c1.29-2.68,3.95-3.33,7.32-1.75c3.5,1.64,6.91,3.48,10.49,4.92c4.04,1.62,8.16-1.58,7.69-5.77c-0.29-2.58-2.01-3.98-4.17-5.08
		c-13.19-6.74-26.38-13.48-39.51-20.34c-1.7-0.89-2.66-0.69-4.02,0.57c-8.27,7.61-16.59,15.18-25,22.64
		c-7.31,6.49-17.35,6.28-23.92-0.32c-6.66-6.69-6.7-16.77-0.04-24.16c5.8-6.44,11.65-12.83,17.47-19.25
		c2.64-2.91,5.26-5.83,8.19-9.08c-0.9-0.1-1.32-0.18-1.73-0.18c-18.97-0.05-37.94-0.08-56.91-0.18c-1.77-0.01-2.3,0.63-2.6,2.31
		c-2.23,12.42-4.59,24.82-6.88,37.24c-1.62,8.78-3.2,17.56-4.85,26.63c4.09,0,7.94,0.08,11.79-0.07c0.73-0.03,1.53-0.83,2.13-1.44
		c2.91-2.96,6.36-4.61,10.54-4.74c5.26-0.16,9.34,2.2,12.69,6.04c4.04-2.42,8.14-3.28,12.6-2.09c4.43,1.18,7.48,4.09,9.75,7.91
		c5.14-1.88,9.82-1.43,14.2,1.46c4.4,2.9,6.27,7.28,6.8,12.29C150.98,241.48,159.44,252.49,152.75,266.06z M212.61,155.93
		c-1.28,0-2.37,0-3.46,0c-19.99,0.04-39.97,0.13-59.96,0.06c-3.52-0.01-6.13,1.17-8.45,3.76c-8.61,9.62-17.33,19.13-26,28.69
		c-1.11,1.23-2.29,2.42-3.26,3.75c-2.27,3.12-1.92,7.16,0.74,9.86c2.62,2.66,6.75,3.06,9.85,0.88c1.05-0.74,1.98-1.65,2.94-2.51
		c11.42-10.33,22.82-20.67,34.24-30.98c2.61-2.35,5.38-2.48,7.33-0.44c2.08,2.18,1.71,4.83-1.02,7.47c-0.48,0.46-0.9,0.99-1.44,1.58
		c1.04,0.54,1.85,0.97,2.67,1.39c12.19,6.27,24.43,12.45,36.56,18.84c8.61,4.54,10.88,14.28,5.47,22.4
		c-0.23,0.34-0.38,0.73-0.58,1.13c5.58,0,10.95,0,16.52,0C220.71,199.87,216.7,178.12,212.61,155.93z M273.57,189.08
		C273.57,189.08,273.57,189.08,273.57,189.08c0.01-11.25,0.02-22.49,0-33.74c-0.01-3.05-0.99-4.16-3.83-4.17
		c-15.09-0.03-30.18-0.01-45.28-0.02c-2.12,0-3.04,0.8-2.62,3.05c4.3,23.08,8.6,46.16,12.76,69.26c0.49,2.73,1.7,3.41,4.24,3.38
		c9.85-0.11,19.69-0.04,29.54-0.05c4.43,0,5.18-0.74,5.18-5.09C273.57,210.83,273.57,199.96,273.57,189.08z M9.42,189.09
		c0,10.89,0,21.78,0,32.67c0,4.24,0.78,5.04,4.95,5.04c9.67,0.01,19.34,0.01,29.02,0c4.36,0,4.37,0,5.14-4.24
		c4.14-22.57,8.27-45.14,12.4-67.71c0.59-3.2,0.19-3.69-3.15-3.69c-14.55-0.01-29.11-0.01-43.66,0c-3.85,0-4.7,0.85-4.7,4.71
		C9.41,166.94,9.42,178.01,9.42,189.09z M123.18,235.91c-2.13,0.21-3.99,1.29-4.87,3.58c-2.54,6.6-5.08,13.21-7.46,19.88
		c-1,2.79,0.53,5.75,3.15,6.83c2.79,1.15,6.04,0.13,7.21-2.76c2.75-6.82,5.37-13.69,7.74-20.65
		C130.11,239.36,127.05,235.85,123.18,235.91z M103.75,228.03c-1.53,1.14-3.8,1.97-4.45,3.49c-2.93,6.84-5.51,13.83-7.98,20.85
		c-0.94,2.69,0.75,5.54,3.27,6.55c2.57,1.03,5.87,0.21,6.92-2.35c2.88-7.06,5.63-14.18,7.99-21.42
		C110.58,231.84,107.65,228.69,103.75,228.03z M77.19,251.97c2.44,0.03,4.34-1.11,5.33-3.61c2.07-5.2,4.06-10.44,5.94-15.72
		c1.06-2.99-0.37-5.87-3.18-7c-2.79-1.13-6.01-0.05-7.19,2.81c-2.2,5.35-4.29,10.75-6.12,16.24
		C70.72,248.46,73.39,251.93,77.19,251.97z M136.89,273.99c0.77-0.63,2.87-1.54,3.62-3.11c1.97-4.12,3.49-8.48,4.9-12.84
		c0.92-2.86-0.77-5.7-3.46-6.64c-2.74-0.95-5.8,0.14-6.95,2.87c-1.78,4.23-3.45,8.52-4.81,12.89
		C129.11,270.61,132.14,274.11,136.89,273.99z"/>
	<path class="st0" d="M113.23,22.82c7.41-6,14.2-11.51,21-17.01c5.25-4.25,9.29-4.23,14.61,0.07c3.65,2.95,7.3,5.89,11.19,9.04
		c0.25-1.17,0.41-2.1,0.64-3.01c1.04-4.04,4.08-6.83,8.19-7.06c3.76-0.21,7.56-0.23,11.32,0.01c4.72,0.3,8.15,3.98,8.36,8.73
		c0.13,2.83,0.02,5.66,0.02,9.01c1.07-0.72,1.74-1.11,2.34-1.59c5.88-4.75,11.75-9.5,17.61-14.27c6.78-5.52,10.05-5.53,16.76-0.07
		c3.34,2.72,6.7,5.41,10.43,8.41c0.11-1.06,0.16-1.66,0.24-2.25c0.6-4.32,3.9-7.66,8.26-7.96c3.48-0.24,7-0.22,10.49-0.1
		c5.66,0.2,9.36,4.07,9.42,9.81c0.07,7.1-0.07,14.21,0.1,21.31c0.03,1.24,0.81,2.77,1.74,3.63c2.71,2.49,5.72,4.64,8.52,7.04
		c4.56,3.89,5.02,9.27,1.26,13.96c-1.79,2.23-3.6,4.44-5.48,6.59c-0.78,0.89-1.68,2.03-2.7,2.27c-3.63,0.83-3.49,3.34-3.47,6.22
		c0.11,12.18,0.06,24.36,0.04,36.54c-0.02,9.54-5.78,15.35-15.32,15.37c-19.25,0.03-38.5,0.01-57.75,0.01c-26.11,0-52.22,0-78.32,0
		c-25.92,0-51.85-0.21-77.77,0.1c-10.45,0.13-16.51-7.22-16.24-16.31c0.37-12.72,0.08-25.46,0.11-38.2c0-1.48-0.08-2.49-1.91-3.03
		c-1.49-0.44-2.91-1.61-4.01-2.78c-2.14-2.28-4.1-4.74-6.02-7.21c-3.38-4.35-2.92-9.83,1.36-13.32
		C25.41,32.77,42.6,18.86,59.82,4.99c4.09-3.29,8.45-3.15,12.65,0.15c3.97,3.13,7.88,6.35,11.77,9.49c0.29-0.17,0.56-0.25,0.56-0.35
		c0.24-5.9,4.58-10.05,11.43-9.6c2.57,0.17,5.16-0.05,7.73,0.08c5.38,0.27,9.04,4.01,9.24,9.43
		C113.31,16.84,113.23,19.49,113.23,22.82z M141.58,37.18c-0.74,0.54-1.34,0.95-1.91,1.4c-10.11,8.02-20.04,16.27-30.4,23.95
		c-4.24,3.14-5.76,6.43-5.6,11.66c0.41,12.72,0.12,25.46,0.14,38.2c0,3.32,1.24,5.38,3.8,5.5c4.93,0.22,9.87,0.06,14.7,0.06
		c0.17-0.44,0.29-0.61,0.29-0.77c0.03-7.57-0.01-15.13,0.07-22.7c0.09-7.95,6.06-13.97,13.98-14.17c2.95-0.07,5.9-0.04,8.84-0.02
		c8.8,0.06,14.77,5.98,14.82,14.74c0.04,6.64,0.01,13.29,0.01,19.93c0,0.97,0,1.95,0,3.09c4.46,0,8.51,0.01,12.56,0
		c4.86-0.02,6.28-1.41,6.29-6.22c0.01-14.12-0.03-28.24,0.04-42.36c0.01-1.75-0.51-2.87-1.89-3.95c-7.63-5.95-15.18-12-22.76-18.01
		C150.25,44.09,145.94,40.65,141.58,37.18z M197.92,117.89c0.06-0.84,0.13-1.38,0.13-1.93c0.01-6.92-0.06-13.84,0.03-20.76
		c0.11-9,6.04-14.86,14.97-14.92c2.49-0.02,4.97-0.01,7.46,0c9.44,0.03,15.31,5.89,15.36,15.38c0.04,6.46,0,12.92,0.01,19.37
		c0,0.97,0.08,1.93,0.13,3.01c4.4,0,8.45,0.01,12.5,0c4.71-0.02,6.21-1.56,6.21-6.36c0.01-11.16,0.02-22.33,0-33.49
		c-0.01-3.68,1-7.89-0.45-10.89c-1.45-3.01-5.36-4.84-8.24-7.13c-9.65-7.69-19.33-15.35-29.06-23.07c-4.79,3.8-9.5,7.5-14.12,11.3
		c-0.51,0.42-0.88,1.59-0.67,2.2c1.35,3.9,0.44,7.23-2.16,10.28c-1.74,2.03-3.31,4.22-5.16,6.14c-1.19,1.23-2.6,2.51-4.16,3.04
		c-1.8,0.62-2.13,1.52-2.12,3.2c0.06,10.15,0.03,20.3,0.03,30.45c0,4.68,0,9.35,0,14.19C191.32,117.89,194.5,117.89,197.92,117.89z
		 M66.04,37.1c-12.28,9.75-24.49,19.4-36.63,29.15c-0.69,0.56-1.09,1.87-1.1,2.84c-0.09,6.55-0.05,13.1-0.05,19.65
		c0,7.93-0.02,15.87,0.01,23.8c0.02,3.15,1.45,5.27,4.02,5.37c4.84,0.19,9.7,0.06,14.83,0.06c0-1.23,0-2.23,0-3.22
		c0-6.46-0.04-12.92,0.01-19.37c0.07-9.14,6.01-15.04,15.09-15.09c2.49-0.01,4.97-0.01,7.46,0c9.29,0.04,15.16,5.86,15.24,15.22
		c0.06,6.46,0.01,12.92,0.02,19.37c0,0.98,0.08,1.96,0.13,3.01c3.44,0,6.61,0,9.31,0c0-2.64,0-5.1,0-7.57
		c0-11.99-0.06-23.99,0.05-35.98c0.02-2.36-0.29-3.92-2.9-4.65c-1.29-0.36-2.43-1.62-3.41-2.69c-1.92-2.11-3.68-4.37-5.5-6.57
		c-2.35-2.85-3.01-5.99-1.9-9.58c0.22-0.71-0.06-2.01-0.6-2.45C75.51,44.57,70.8,40.89,66.04,37.1z M193.37,54.05
		c-17.42-14.1-34.58-27.99-51.81-41.93c-17.35,14.03-34.52,27.91-51.93,41.97c2.08,2.53,4.03,4.89,6.03,7.3
		c14.18-11.24,28.03-22.23,41.89-33.2c3.08-2.44,4.82-2.45,7.87-0.04c5.71,4.51,11.39,9.05,17.09,13.58
		c8.2,6.52,16.4,13.04,24.78,19.7C189.31,58.98,191.22,56.65,193.37,54.05z M20.18,61.36c0.91-0.69,1.72-1.28,2.5-1.9
		C35.89,48.98,49.09,38.5,62.31,28.04c2.78-2.2,4.62-2.22,7.42-0.04c3.7,2.89,7.36,5.84,11.05,8.75c2.57,2.03,5.16,4.05,7.77,6.1
		c2.66-2.17,5.06-4.13,7.72-6.3c-10.19-8.25-20.17-16.33-30.17-24.43C48.7,26.17,31.53,40.06,14.18,54.1
		C16.22,56.57,18.14,58.9,20.18,61.36z M194.53,42.85c6.04-4.8,11.79-9.4,17.57-13.97c4.35-3.44,5.39-3.43,9.82,0.09
		c11.97,9.5,23.94,19.01,35.91,28.52c1.63,1.29,3.29,2.56,5.01,3.89c2.07-2.54,3.97-4.87,5.97-7.33
		C251.46,40,234.3,26.1,217.02,12.11c-9.26,7.47-18.47,14.8-27.49,22.36c-0.72,0.6-0.66,3.23,0.03,4.2
		C190.75,40.31,192.72,41.39,194.53,42.85z M75.41,117.9c0-8.06,0.1-15.88-0.05-23.69c-0.05-2.82-2-4.38-4.98-4.47
		c-2.76-0.08-5.52-0.06-8.28-0.01c-3.67,0.06-5.42,1.76-5.52,5.42c-0.08,3.13-0.02,6.27-0.02,9.4c0,4.4,0,8.8,0,13.35
		C62.94,117.9,68.98,117.9,75.41,117.9z M226.33,117.88c0-8.07,0.11-15.97-0.06-23.87c-0.06-2.68-2.03-4.17-4.87-4.27
		c-2.57-0.09-5.15-0.04-7.73-0.02c-4.52,0.02-6.13,1.61-6.15,6.18c-0.03,6.55-0.02,13.09,0,19.64c0,0.78,0.14,1.56,0.22,2.35
		C214.04,117.88,220.07,117.88,226.33,117.88z M150.88,117.93c0-8.12,0.07-15.95-0.04-23.78c-0.04-2.59-2.01-4.3-4.77-4.4
		c-3.04-0.11-6.08-0.11-9.11,0c-3.1,0.11-4.82,1.98-4.86,5.19c-0.06,4.61-0.02,9.23-0.02,13.84c0,3.01,0,6.03,0,9.16
		C138.46,117.93,144.5,117.93,150.88,117.93z M94.37,14.34c0,1.5-0.05,2.85,0.01,4.2c0.07,1.53-0.34,3.63,0.49,4.48
		c2.56,2.62,5.61,4.77,8.73,7.31c0-5.72,0-10.82,0-15.99C100.5,14.34,97.6,14.34,94.37,14.34z M245.3,14.33
		c0,1.72-0.05,3.1,0.01,4.47c0.06,1.44-0.33,3.44,0.46,4.22c2.6,2.61,5.64,4.78,8.77,7.33c0-5.71,0-10.82,0-16.02
		C251.44,14.33,248.54,14.33,245.3,14.33z M179.07,14.38c-3.25,0-6.15,0-9.45,0c0.17,3.01-0.64,6.46,0.71,8.47
		c1.98,2.94,5.49,4.85,8.85,7.61c0-5.22,0-9.63,0-14.04C179.17,15.79,179.11,15.17,179.07,14.38z"/>
	<path class="st0" d="M249.92,188.9c-7.83-0.02-14-6.19-14.04-14.03c-0.03-7.93,6.29-14.31,14.14-14.28
		c7.8,0.04,14.22,6.58,14.11,14.38C264.03,182.74,257.72,188.92,249.92,188.9z M254.69,174.76c-0.02-2.54-2.29-4.75-4.81-4.7
		c-2.59,0.06-4.62,2.25-4.54,4.89c0.07,2.57,2.02,4.47,4.59,4.49C252.55,179.46,254.71,177.33,254.69,174.76z"/>
	<path class="st0" d="M47.1,174.74c0.02,7.85-6.09,14.08-13.9,14.16c-7.92,0.08-14.33-6.2-14.35-14.06
		c-0.02-7.81,6.46-14.28,14.25-14.24C40.84,160.65,47.07,166.94,47.1,174.74z M37.65,174.74c-0.02-2.61-2.21-4.75-4.76-4.68
		c-2.43,0.07-4.54,2.2-4.6,4.64c-0.06,2.57,2.09,4.73,4.7,4.74C35.67,179.45,37.68,177.42,37.65,174.74z"/>
</g>
</svg>
