<?xml version="1.0" encoding="utf-8"?>
<!-- Generator: Adobe Illustrator 27.8.0, SVG Export Plug-In . SVG Version: 6.00 Build 0)  -->
<svg version="1.1" id="Capa_1" xmlns="http://www.w3.org/2000/svg" xmlns:xlink="http://www.w3.org/1999/xlink" x="0px" y="0px"
	 viewBox="0 0 283.46 283.46" style="enable-background:new 0 0 283.46 283.46;" xml:space="preserve" fill="#919191">
<g>
	<path class="st0" d="M0,225.33c0.73-3.12,1.2-6.32,2.23-9.34c5.71-16.78,17.1-27.61,34.24-32.19c1.8-0.48,2.68-1.22,3.19-3.09
		c6.54-23.7,32.47-35.99,54.9-26.1c1.16,0.51,2.32,1.02,3.58,1.57c0.86-2.5,1.57-4.87,2.49-7.17c3.36-8.38,8.51-15.49,15.54-21.14
		c1.55-1.25,1.82-2.34,1.34-4.18c-9.31-35.39,11.69-71.32,47.13-80.72c43.12-11.44,85.44,23.11,82.4,67.65
		c-1.87,27.34-15.96,46.45-40.93,57.5c-1.55,0.68-2.34,1.32-2.29,3.13c0.06,1.92-0.25,3.86-0.52,5.78c-0.27,1.9-0.68,3.77-1.05,5.77
		c2.17,0.55,4.22,0.99,6.23,1.59c21.05,6.28,35.64,27.18,33.92,48.53c-1.9,23.48-18.82,41.68-41.48,44.54
		c-2.55,0.32-5.14,0.46-7.7,0.46c-47.97,0.03-95.94-0.2-143.91,0.11c-26.44,0.17-46.29-19.28-48.89-41.73
		c-0.04-0.34-0.28-0.66-0.42-0.99C0,231.98,0,228.65,0,225.33z M122.57,137.86c-7.34,6.73-11.73,14.8-13.44,24.4
		c-0.32,1.79-0.03,3.09,1.11,4.54c5.21,6.62,8.16,14.17,8.57,22.63c0.25,5.14-1.83,8.07-5.65,8.16c-3.36,0.08-6-2.89-6.26-7.55
		c-0.65-11.69-6.71-20.26-17.49-24.75c-10.65-4.43-20.8-2.73-29.72,4.71c-5.44,4.54-8.53,10.51-9.51,17.57
		c-0.69,4.91-2.05,6.18-6.72,6.87c-2.08,0.31-4.17,0.74-6.18,1.37c-17.19,5.35-27.57,21.92-25.07,39.94
		c2.36,17.05,17.73,30.37,35.47,30.4c49.08,0.08,98.16,0.04,147.24-0.01c2.65,0,5.34-0.39,7.93-0.95
		c16.91-3.71,29.28-20.34,27.82-37.26c-1.59-18.38-15.87-32.79-33.29-33.61c-8.91-0.42-10.44-2.83-7.63-11.32
		c1.12-3.39,1.65-6.97,2.46-10.51C161.24,175.58,138.41,164.08,122.57,137.86z M181.18,161.29c29.94,0.07,54.13-23.98,54.28-53.96
		c0.15-30.1-23.94-54.52-53.92-54.66c-29.82-0.14-54.33,24.13-54.45,53.89C126.98,136.9,151.02,161.22,181.18,161.29z"/>
	<path class="st0" d="M270.91,100.26c2.02,0,4.05-0.08,6.07,0.02c3.39,0.16,5.82,2.59,5.91,5.75c0.09,3.17-2.17,5.8-5.61,5.98
		c-4.22,0.21-8.46,0.22-12.68,0.01c-3.51-0.17-5.64-2.67-5.59-5.95c0.05-3.31,2.5-5.67,6.1-5.8
		C267.04,100.2,268.98,100.26,270.91,100.26z"/>
	<path class="st0" d="M187.23,17.42c0,1.93,0.1,3.86-0.02,5.79c-0.21,3.53-2.76,6-5.98,5.97c-3.1-0.03-5.65-2.4-5.8-5.83
		c-0.18-4.03-0.19-8.09,0.01-12.12c0.17-3.42,2.77-5.71,5.92-5.67c3.16,0.04,5.6,2.39,5.83,5.8
		C187.34,13.37,187.22,15.39,187.23,17.42C187.23,17.42,187.23,17.42,187.23,17.42z"/>
	<path class="st0" d="M239.38,53.71c-1.4-1.09-3.3-2.07-4.44-3.61c-1.41-1.9-1.25-4.37,0.37-6.15c3.03-3.32,6.19-6.55,9.56-9.52
		c2.23-1.98,5.43-1.48,7.49,0.62c1.99,2.02,2.54,5.15,0.66,7.29c-3.09,3.51-6.5,6.73-9.9,9.94
		C242.39,52.95,241.13,53.06,239.38,53.71z"/>
	<path class="st0" d="M121.84,53.3c-0.79-0.43-2.4-0.96-3.55-2c-2.73-2.46-5.29-5.11-7.83-7.77c-2.53-2.65-2.61-6-0.33-8.41
		c2.37-2.5,5.87-2.55,8.59,0.04c2.79,2.66,5.51,5.41,8.16,8.22c1.74,1.85,2.03,4.11,1.01,6.41C126.93,52.01,125.09,53.1,121.84,53.3
		z"/>
	<path class="st0" d="M254.81,173.49c0,2.94-1.16,4.72-3.29,5.81c-2.06,1.06-4.26,1-5.94-0.55c-3.3-3.05-6.53-6.21-9.53-9.56
		c-1.92-2.15-1.53-5.19,0.41-7.3c1.85-2.01,4.99-2.9,6.97-1.18c3.79,3.29,7.22,7.01,10.69,10.66
		C254.67,171.95,254.68,173.07,254.81,173.49z"/>
	<path class="st0" d="M92.27,100.22c1.84,0,3.68-0.08,5.51,0.02c3.38,0.18,5.73,2.62,5.76,5.83c0.03,3.26-2.23,5.74-5.66,5.87
		c-3.76,0.14-7.53,0.14-11.29,0.01c-3.35-0.11-5.79-2.67-5.82-5.78c-0.03-3.23,2.51-5.79,5.99-5.94
		C88.6,100.15,90.44,100.22,92.27,100.22z"/>
</g>
</svg>
